<?xml version="1.0" encoding="utf-8"?>
<!-- Generator: Adobe Illustrator 16.0.0, SVG Export Plug-In . SVG Version: 6.00 Build 0)  -->
<!DOCTYPE svg PUBLIC "-//W3C//DTD SVG 1.1//EN" "http://www.w3.org/Graphics/SVG/1.1/DTD/svg11.dtd">
<svg version="1.1" id="Layer_1" xmlns="http://www.w3.org/2000/svg" xmlns:xlink="http://www.w3.org/1999/xlink" x="0px" y="0px"
	 width="372px" height="62.435px" viewBox="0 0 372 62.435" enable-background="new 0 0 372 62.435" xml:space="preserve">
<g>
	<polygon fill="#FF7C00" points="1.817,0.001 3.626,0.001 13.641,15.294 13.641,0.001 15.274,0.001 15.274,17.821 13.464,17.821 
		3.45,2.528 3.45,17.821 1.817,17.821 	"/>
	<path fill="#FF7C00" d="M20.209,11.749c0,3.222,1.683,5.106,4.161,5.106c2.006,0,3.469-1.115,3.769-2.999h1.486
		c-0.322,2.602-2.405,4.311-5.354,4.311c-3.468,0-5.598-2.453-5.598-6.714c0-4.338,2.155-6.818,5.647-6.818
		c3.424,0,5.478,2.354,5.478,6.543v0.497h-9.588V11.749z M28.26,10.46C28.139,7.61,26.599,5.95,24.296,5.95
		c-2.305,0-3.941,1.684-4.086,4.511H28.26z"/>
	<path fill="#FF7C00" d="M34.782,4.957h2.379v1.214h-2.379v9.369c0,0.942,0.122,1.387,0.939,1.387c0.397,0,0.868-0.124,1.44-0.247
		v1.189c-0.672,0.174-1.265,0.272-1.837,0.272c-1.663,0-2.029-0.842-2.029-2.602V6.171h-1.761V4.957h1.761V1.265h1.487V4.957z"/>
	<path fill="#FF7C00" d="M39.912,0.001h1.485v6.962c0.966-1.535,2.406-2.329,4.264-2.329c1.734,0,3.145,0.696,3.841,1.81
		c0.519,0.841,0.519,1.982,0.519,3.543v7.833h-1.486v-7.807c0-2.751-0.472-4.064-3.173-4.064c-2.353,0-3.965,1.633-3.965,4.285
		v7.586h-1.485V0.001z"/>
	<path fill="#FF7C00" d="M54.584,11.749c0,3.222,1.686,5.106,4.161,5.106c2.011,0,3.474-1.115,3.769-2.999H64
		c-0.321,2.602-2.403,4.311-5.352,4.311c-3.468,0-5.602-2.453-5.602-6.714c0-4.338,2.157-6.818,5.65-6.818
		c3.421,0,5.476,2.354,5.476,6.543v0.497h-9.589V11.749z M62.638,10.46C62.514,7.61,60.976,5.95,58.673,5.95
		c-2.306,0-3.942,1.684-4.089,4.511H62.638z"/>
	<path fill="#FF7C00" d="M67.196,4.957h1.436v2.257c0.772-1.786,2.109-2.58,3.971-2.58h0.172v1.537h-0.199
		c-2.555,0-3.889,1.536-3.889,4.512v7.138h-1.491V4.957z"/>
	<rect x="75.327" fill="#FF7C00" width="1.489" height="17.821"/>
	<path fill="#FF7C00" d="M84.271,18.142c-2.624,0-4.261-1.485-4.261-3.718c0-1.485,0.723-2.6,2.06-3.221
		c1.361-0.619,2.923-0.645,4.634-0.792c1.809-0.372,2.255-0.348,2.255-1.663c0-1.932-0.843-2.798-3.196-2.798
		c-2.303,0-3.545,0.966-3.646,2.851h-1.461c0.049-2.53,1.958-4.166,5.107-4.166c3.074,0,4.708,1.34,4.708,3.89v6.867v0.149
		c0,0.844,0.024,1.191,0.918,1.191c0.1,0,0.299,0,0.544-0.026v1.116c-0.47,0.099-0.842,0.123-1.064,0.123
		c-1.22,0-1.838-0.594-1.838-1.784v-0.198C87.67,17.424,86.084,18.142,84.271,18.142 M84.425,11.675
		c-1.886,0.497-2.875,1.413-2.875,2.726c0,1.462,1.115,2.429,2.9,2.429c2.672,0,4.536-1.487,4.536-3.965l-0.026-1.81
		C87.869,11.478,86.31,11.576,84.425,11.675"/>
	<path fill="#FF7C00" d="M94.313,4.957h1.435v2.059c0.966-1.587,2.384-2.381,4.262-2.381c1.788,0,3.173,0.669,3.869,1.809
		c0.496,0.794,0.522,1.811,0.522,3.173v0.371v7.833h-1.488V9.79c0-2.6-0.57-3.84-3.196-3.84c-2.354,0-3.917,1.609-3.917,4.285v7.586
		h-1.486V4.957z"/>
	<path fill="#FF7C00" d="M119.072,17.821h-1.488V15.64c-0.993,1.685-2.528,2.527-4.537,2.527c-3.394,0-5.624-2.504-5.624-6.765
		c0-4.263,2.277-6.766,5.724-6.766c2.032,0,3.521,0.867,4.437,2.553V0.002h1.488V17.821z M113.345,16.854
		c2.779,0,4.362-1.908,4.362-5.452c0-3.52-1.612-5.452-4.362-5.452c-2.773,0-4.388,1.932-4.388,5.452
		C108.958,14.871,110.617,16.854,113.345,16.854"/>
	<path fill="#FF7C00" d="M123.806,13.805c0.021,1.785,1.413,3.049,3.394,3.049c2.205,0,3.447-0.992,3.447-2.405
		c0-1.585-1.191-1.858-3.472-2.404c-3.072-0.743-4.636-1.46-4.636-3.691c0-2.182,1.785-3.718,4.438-3.718
		c2.902,0,4.683,1.536,4.858,4.088h-1.54c-0.098-1.734-1.311-2.773-3.344-2.773c-1.81,0-2.874,0.913-2.874,2.205
		c0,1.885,1.509,2.058,4.187,2.701c2.727,0.671,3.919,1.536,3.919,3.619c0,2.131-1.888,3.693-4.906,3.693
		c-3.001,0-4.937-1.71-5.011-4.362H123.806z"/>
	<rect x="142.762" width="1.637" height="17.821"/>
	<path d="M148.564,4.957H150v2.059c0.969-1.587,2.382-2.381,4.26-2.381c1.787,0,3.174,0.669,3.869,1.809
		c0.497,0.794,0.522,1.811,0.522,3.173v0.371v7.833h-1.485V9.79c0-2.6-0.574-3.84-3.198-3.84c-2.357,0-3.919,1.609-3.919,4.285
		v7.586h-1.485V4.957z"/>
	<path d="M163.283,13.805c0.025,1.785,1.417,3.049,3.397,3.049c2.207,0,3.445-0.992,3.445-2.405c0-1.585-1.189-1.858-3.468-2.404
		c-3.078-0.743-4.636-1.46-4.636-3.691c0-2.182,1.781-3.718,4.435-3.718c2.9,0,4.686,1.536,4.86,4.088h-1.54
		c-0.099-1.734-1.311-2.773-3.348-2.773c-1.806,0-2.872,0.913-2.872,2.205c0,1.885,1.512,2.058,4.188,2.701
		c2.728,0.671,3.917,1.536,3.917,3.619c0,2.131-1.885,3.693-4.909,3.693c-2.999,0-4.929-1.71-5.005-4.362H163.283z"/>
	<path d="M176.792,4.957h2.38v1.214h-2.38v9.369c0,0.942,0.123,1.387,0.942,1.387c0.396,0,0.867-0.124,1.438-0.247v1.189
		c-0.669,0.174-1.262,0.272-1.833,0.272c-1.664,0-2.032-0.842-2.032-2.602V6.171h-1.764V4.957h1.764V1.265h1.485V4.957z"/>
	<path d="M182.068,0h1.49v2.231h-1.49V0z M182.068,4.957h1.49v12.864h-1.49V4.957z"/>
	<path d="M189.356,4.957h2.379v1.214h-2.379v9.369c0,0.942,0.123,1.387,0.945,1.387c0.392,0,0.865-0.124,1.434-0.247v1.189
		c-0.665,0.174-1.263,0.272-1.832,0.272c-1.66,0-2.03-0.842-2.03-2.602V6.171h-1.765V4.957h1.765V1.265h1.483V4.957z"/>
	<path d="M204.55,17.821h-1.435v-2.058c-0.992,1.635-2.384,2.403-4.317,2.403c-2.923,0-4.361-1.536-4.361-4.558V4.957h1.484v8.302
		c0,2.456,0.794,3.596,3.151,3.596c2.457,0,3.988-1.637,3.988-4.29V4.957h1.489V17.821z"/>
	<path d="M210.225,4.957h2.38v1.214h-2.38v9.369c0,0.942,0.122,1.387,0.941,1.387c0.398,0,0.866-0.124,1.438-0.247v1.189
		c-0.671,0.174-1.265,0.272-1.833,0.272c-1.661,0-2.032-0.842-2.032-2.602V6.171h-1.761V4.957h1.761V1.265h1.485V4.957z"/>
	<path d="M216.248,11.749c0,3.222,1.685,5.106,4.162,5.106c2.01,0,3.474-1.115,3.766-2.999h1.489
		c-0.323,2.602-2.404,4.311-5.353,4.311c-3.47,0-5.6-2.453-5.6-6.714c0-4.338,2.155-6.818,5.65-6.818
		c3.419,0,5.476,2.354,5.476,6.543v0.497h-9.591V11.749z M224.3,10.46c-0.125-2.851-1.661-4.511-3.963-4.511
		c-2.305,0-3.94,1.684-4.09,4.511H224.3z"/>
	<path d="M236.545,6.172h-1.884V4.958h1.884V2.603c0-1.957,0.966-2.774,3.049-2.774c0.247,0,0.493,0.023,0.77,0.073v1.338
		c-0.323-0.023-0.596-0.098-0.819-0.098c-1.142,0-1.515,0.469-1.515,1.61v2.206h2.334v1.214h-2.334v11.649h-1.484V6.172z"/>
	<path d="M248.045,4.634c3.74,0,5.924,2.456,5.924,6.766c0,4.314-2.184,6.742-5.924,6.742c-3.742,0-5.897-2.427-5.897-6.742
		C242.148,7.09,244.303,4.634,248.045,4.634 M248.045,16.829c2.751,0,4.389-1.908,4.389-5.429c0-3.52-1.638-5.452-4.389-5.452
		c-2.729,0-4.361,1.932-4.361,5.452C243.684,14.921,245.317,16.829,248.045,16.829"/>
	<path d="M256.991,4.957h1.437v2.257c0.769-1.786,2.108-2.58,3.967-2.58h0.178v1.537h-0.203c-2.554,0-3.89,1.536-3.89,4.512v7.138
		h-1.488V4.957z"/>
	<path d="M160.827,35.535h-5.609l6.871,19.311c0.067,0.182,0.106,0.396,0.106,0.541c0,1.904-1.011,2.842-3.021,2.842
		c-0.285,0-0.718,0-1.182-0.073v4.135c0.896,0.107,1.614,0.145,2.153,0.145c3.668,0,5.035-1.151,6.149-4.388l0.981-2.821
		L160.827,35.535z"/>
	<path d="M356.443,35.535h-5.609l6.87,19.311c0.069,0.182,0.105,0.396,0.105,0.541c0,1.904-1.007,2.842-3.021,2.842
		c-0.287,0-0.719,0-1.185-0.073v4.135c0.897,0.107,1.62,0.145,2.154,0.145c3.67,0,5.038-1.151,6.154-4.388l0.981-2.821
		L356.443,35.535z"/>
	<path fill="#FF7C00" d="M363.85,40.39c1.336-4.941,5.118-8.22,5.118-8.22s1.611,4.738,0.271,9.684
		c-1.337,4.943-5.12,8.218-5.12,8.218S362.51,45.332,363.85,40.39"/>
	<polygon points="1.817,28.775 9.693,28.775 14.837,48.445 19.905,28.775 27.818,28.775 27.818,54.631 22.816,54.631 22.816,33.773 
		17.569,54.631 12.139,54.631 6.818,33.773 6.818,54.631 1.817,54.631 	"/>
	<path d="M50.115,54.631h-4.997v-2.265c-1.441,1.833-3.383,2.771-5.791,2.771c-4.21,0-6.292-2.195-6.292-6.583V35.535h5.104V47.08
		c0,2.588,0.755,3.776,2.95,3.776c2.372,0,3.918-1.511,3.918-4.028V35.535h5.108V54.631z"/>
	<rect x="55.111" y="28.775" width="5.109" height="25.855"/>
	<path d="M70.756,54.883c-4.21,0-5.107-1.44-5.107-5.429V39.131h-2.516v-3.596h2.516v-5.216h5.07v5.216h2.949v3.596h-2.949v10.572
		c0,1.007,0.322,1.223,1.693,1.223h1.256v3.849C72.266,54.812,71.295,54.883,70.756,54.883"/>
	<path d="M77.084,28.775h5.107v4.637h-5.107V28.775z M77.084,35.535h5.107v19.096h-5.107V35.535z"/>
	<path d="M87.225,35.535h4.853v2.589c1.478-2.229,3.205-3.238,5.686-3.238c4.637,0,7.91,3.993,7.91,10.105
		c0,6.294-3.378,10.285-7.84,10.285c-2.442,0-4.385-1.043-5.646-3.019V62.29h-4.962V35.535z M96.359,39.274
		c-2.698,0-4.172,2.015-4.172,5.935c0,3.634,1.585,5.647,4.282,5.647c2.515,0,4.135-2.087,4.135-5.647
		C100.604,41.326,99.094,39.274,96.359,39.274"/>
	<path d="M114.306,55.314c-3.67,0-5.793-2.159-5.793-6.078c0-3.738,2.014-5.393,6.478-6.078c3.953-0.611,5.319-0.324,5.319-2.158
		c0-1.581-0.936-2.157-3.13-2.157c-2.088,0-3.201,0.864-3.201,2.374v0.287h-4.78v-0.359c0-3.884,2.876-6.293,7.803-6.293
		c5.393,0,8.271,1.943,8.271,5.395v10.859c0,1.402,0.216,2.229,1.077,2.661v0.863h-5.322c-0.357-0.682-0.536-1.476-0.577-2.372
		C119.196,54.234,117.072,55.314,114.306,55.314 M115.815,46.54c-1.619,0.466-2.413,1.077-2.413,2.553
		c0,1.402,0.973,2.302,2.523,2.302c2.767,0,4.458-1.655,4.458-4.353v-1.797C118.442,46.144,116.786,46.252,115.815,46.54"/>
	<path d="M129.843,35.535h4.748v3.272c1.329-2.624,3.056-3.812,5.5-3.812c0.251,0,0.503,0,0.755,0.036v5.177h-1.692
		c-2.767,0-4.205,1.439-4.205,4.318v10.104h-5.106V35.535z"/>
	<path d="M150.421,54.883c-4.205,0-5.107-1.44-5.107-5.429V39.131h-2.512v-3.596h2.512v-5.216h5.074v5.216h2.944v3.596h-2.944
		v10.572c0,1.007,0.322,1.223,1.688,1.223h1.256v3.849C151.932,54.812,150.961,54.883,150.421,54.883"/>
	<path d="M176.713,28.775h10.139c7.911,0,11.793,4.207,11.793,12.945c0,4.819-1.51,8.45-4.208,10.608
		c-2.518,2.014-5.32,2.3-9.026,2.3h-8.698V28.775z M186.203,49.955c4.927,0,7.015-2.41,7.015-8.234c0-5.754-1.979-8.417-6.365-8.417
		h-4.928v16.651H186.203z"/>
	<path d="M219.649,48.84c-1.042,3.993-4.316,6.438-8.849,6.438c-5.429,0-8.993-3.883-8.993-10.32c0-6.256,3.421-10.105,8.921-10.105
		c5.828,0,9.171,3.667,9.171,10.248c0,0.434,0,0.866-0.032,1.333h-12.771c0.145,2.982,1.474,4.531,3.958,4.531
		c1.725,0,2.84-0.648,3.488-2.124H219.649z M214.611,43.086c-0.068-2.591-1.401-3.955-3.773-3.955c-2.191,0-3.522,1.364-3.741,3.955
		H214.611z"/>
	<path d="M223.637,35.535h4.857v2.122c1.399-1.762,3.161-2.662,5.287-2.662c2.406,0,4.063,0.861,5.321,2.807
		c1.332-1.836,3.165-2.807,5.428-2.807c3.814,0,6.26,2.376,6.26,6.294v13.341h-5.035V42.333c0-1.871-1.078-2.914-2.842-2.914
		c-1.939,0-3.235,1.367-3.235,3.631v11.58h-4.999V42.37c0-1.908-1.042-2.951-2.771-2.951c-1.941,0-3.233,1.367-3.233,3.667v11.544
		h-5.038V35.535z"/>
	<path d="M264.239,34.852c6.005,0,9.678,3.849,9.678,10.212c0,6.367-3.673,10.213-9.678,10.213c-6.003,0-9.675-3.846-9.675-10.213
		C254.564,38.701,258.236,34.852,264.239,34.852 M264.239,50.999c2.842,0,4.462-2.121,4.462-5.935c0-3.811-1.62-5.896-4.462-5.896
		c-2.84,0-4.496,2.086-4.496,5.896C259.743,48.878,261.399,50.999,264.239,50.999"/>
	<path d="M294.34,47.438c-0.432,4.855-3.774,7.839-8.672,7.839c-5.498,0-8.881-3.775-8.881-10.213
		c0-6.401,3.456-10.212,9.065-10.212c4.962,0,8.089,2.805,8.45,7.446h-5.07c-0.29-2.015-1.475-3.13-3.348-3.13
		c-2.553,0-3.774,2.014-3.774,5.969c0,3.706,1.366,5.72,3.774,5.72c1.91,0,3.058-1.153,3.42-3.418H294.34z"/>
	<path d="M297.935,35.535h4.745v3.272c1.334-2.624,3.057-3.812,5.502-3.812c0.253,0,0.507,0,0.757,0.036v5.177h-1.688
		c-2.771,0-4.209,1.439-4.209,4.318v10.104h-5.106V35.535z"/>
	<path d="M316.888,55.314c-3.668,0-5.796-2.159-5.796-6.078c0-3.738,2.021-5.393,6.479-6.078c3.952-0.611,5.319-0.324,5.319-2.158
		c0-1.581-0.935-2.157-3.128-2.157c-2.084,0-3.198,0.864-3.198,2.374v0.287h-4.786v-0.359c0-3.884,2.88-6.293,7.807-6.293
		c5.396,0,8.271,1.943,8.271,5.395v10.859c0,1.402,0.214,2.229,1.079,2.661v0.863h-5.324c-0.358-0.682-0.54-1.476-0.575-2.372
		C321.779,54.234,319.656,55.314,316.888,55.314 M318.396,46.54c-1.619,0.466-2.409,1.077-2.409,2.553
		c0,1.402,0.972,2.302,2.517,2.302c2.768,0,4.459-1.655,4.459-4.353v-1.797C321.023,46.144,319.367,46.252,318.396,46.54"/>
	<path d="M349.254,47.438c-0.435,4.855-3.777,7.839-8.667,7.839c-5.503,0-8.882-3.775-8.882-10.213
		c0-6.401,3.446-10.212,9.06-10.212c4.965,0,8.09,2.805,8.447,7.446h-5.065c-0.289-2.015-1.474-3.13-3.344-3.13
		c-2.556,0-3.776,2.014-3.776,5.969c0,3.706,1.366,5.72,3.776,5.72c1.903,0,3.055-1.153,3.417-3.418H349.254z"/>
</g>
</svg>
