<?xml version="1.0" standalone="no"?>
<!DOCTYPE svg PUBLIC "-//W3C//DTD SVG 1.1//EN" "http://www.w3.org/Graphics/SVG/1.1/DTD/svg11.dtd">
<svg width="100%" height="100%" viewBox="0 0 515 516" version="1.1" xmlns="http://www.w3.org/2000/svg" xmlns:xlink="http://www.w3.org/1999/xlink" xml:space="preserve" style="fill-rule:evenodd;clip-rule:evenodd;stroke-linejoin:round;stroke-miterlimit:1.41421;">
    <g transform="matrix(1.00964,0,0,1.3196,4.8707,3.74488)">
        <g id="Layer1">
            <rect x="-4.824" y="-2.838" width="509.984" height="390.809" style="fill:white;"/>
            <clipPath id="_clip1">
                <rect x="-4.824" y="-2.838" width="509.984" height="390.809"/>
            </clipPath>
            <g clip-path="url(#_clip1)">
                <g transform="matrix(0.921033,0.000402373,0,0.772765,-30.2373,-15.8936)">
                    <path d="M71.59,448.334C71.269,448.894 70.809,449.174 70.209,449.174C69.769,449.174 69.208,448.924 68.528,448.424C67.848,447.924 66.937,447.364 65.797,446.743C64.656,446.123 63.246,445.563 61.565,445.062C59.884,444.562 57.843,444.312 55.442,444.312C53.281,444.312 51.31,444.622 49.53,445.243C47.749,445.863 46.228,446.693 44.967,447.734C43.707,448.774 42.736,449.985 42.056,451.365C41.376,452.746 41.036,454.197 41.036,455.717C41.036,457.598 41.516,459.159 42.476,460.399C43.437,461.64 44.687,462.7 46.228,463.581C47.769,464.461 49.54,465.222 51.54,465.862C53.541,466.502 55.572,467.143 57.633,467.783C59.694,468.423 61.725,469.133 63.726,469.914C65.727,470.694 67.498,471.665 69.038,472.825C70.579,473.986 71.83,475.406 72.79,477.087C73.751,478.768 74.231,480.809 74.231,483.21C74.231,485.811 73.771,488.232 72.85,490.473C71.93,492.714 70.579,494.655 68.798,496.296C67.017,497.936 64.826,499.237 62.225,500.198C59.624,501.158 56.643,501.638 53.281,501.638C49.079,501.638 45.458,500.968 42.416,499.627C39.375,498.287 36.654,496.536 34.253,494.375L35.573,492.334C35.773,492.014 36.003,491.774 36.263,491.614C36.524,491.454 36.874,491.374 37.314,491.374C37.834,491.374 38.464,491.694 39.205,492.334C39.945,492.974 40.936,493.665 42.176,494.405C43.417,495.145 44.947,495.836 46.768,496.476C48.589,497.116 50.84,497.436 53.521,497.436C56.042,497.436 58.263,497.086 60.184,496.386C62.105,495.685 63.706,494.735 64.987,493.534C66.267,492.334 67.238,490.923 67.898,489.303C68.558,487.682 68.888,485.971 68.888,484.17C68.888,482.169 68.408,480.509 67.448,479.188C66.487,477.867 65.227,476.747 63.666,475.826C62.105,474.906 60.334,474.126 58.354,473.485C56.373,472.845 54.342,472.205 52.261,471.565C50.18,470.924 48.149,470.224 46.168,469.464C44.187,468.703 42.416,467.743 40.856,466.582C39.295,465.422 38.034,464.011 37.074,462.35C36.113,460.69 35.633,458.619 35.633,456.138C35.633,454.017 36.093,451.976 37.014,450.015C37.934,448.054 39.245,446.333 40.946,444.852C42.646,443.372 44.717,442.191 47.158,441.311C49.6,440.43 52.341,439.99 55.382,439.99C59.024,439.99 62.255,440.51 65.077,441.551C67.898,442.591 70.469,444.192 72.79,446.353L71.59,448.334Z" style="fill:black;fill-rule:nonzero;"/>
                    <path d="M113.429,439.99C117.71,439.99 121.542,440.72 124.924,442.181C128.305,443.642 131.157,445.713 133.478,448.394C135.799,451.075 137.57,454.307 138.79,458.088C140.011,461.87 140.621,466.102 140.621,470.784C140.621,475.466 140.011,479.688 138.79,483.45C137.57,487.212 135.799,490.433 133.478,493.114C131.157,495.796 128.305,497.856 124.924,499.297C121.542,500.738 117.71,501.458 113.429,501.458C109.147,501.458 105.315,500.738 101.933,499.297C98.552,497.856 95.69,495.796 93.349,493.114C91.008,490.433 89.228,487.212 88.007,483.45C86.786,479.688 86.176,475.466 86.176,470.784C86.176,466.102 86.786,461.87 88.007,458.088C89.228,454.307 91.008,451.075 93.349,448.394C95.69,445.713 98.552,443.642 101.933,442.181C105.315,440.72 109.147,439.99 113.429,439.99ZM113.429,496.956C116.99,496.956 120.102,496.346 122.763,495.125C125.424,493.905 127.645,492.154 129.426,489.873C131.207,487.592 132.537,484.841 133.418,481.619C134.298,478.398 134.738,474.786 134.738,470.784C134.738,466.822 134.298,463.221 133.418,459.979C132.537,456.738 131.207,453.967 129.426,451.665C127.645,449.364 125.424,447.594 122.763,446.353C120.102,445.112 116.99,444.492 113.429,444.492C109.867,444.492 106.756,445.112 104.094,446.353C101.433,447.594 99.212,449.364 97.431,451.665C95.65,453.967 94.31,456.738 93.409,459.979C92.509,463.221 92.059,466.822 92.059,470.784C92.059,474.786 92.509,478.398 93.409,481.619C94.31,484.841 95.65,487.592 97.431,489.873C99.212,492.154 101.433,493.905 104.094,495.125C106.756,496.346 109.867,496.956 113.429,496.956Z" style="fill:black;fill-rule:nonzero;"/>
                    <path d="M196.926,448.934C196.726,449.134 196.536,449.304 196.356,449.444C196.176,449.585 195.926,449.655 195.606,449.655C195.206,449.655 194.665,449.384 193.985,448.844C193.305,448.304 192.384,447.714 191.224,447.073C190.063,446.433 188.613,445.843 186.872,445.303C185.131,444.762 183.02,444.492 180.539,444.492C177.097,444.492 174.046,445.102 171.385,446.323C168.724,447.544 166.473,449.294 164.632,451.575C162.791,453.856 161.4,456.618 160.46,459.859C159.519,463.101 159.049,466.742 159.049,470.784C159.049,474.986 159.539,478.708 160.52,481.949C161.5,485.191 162.891,487.922 164.692,490.143C166.493,492.364 168.674,494.055 171.235,495.215C173.796,496.376 176.637,496.956 179.759,496.956C182.64,496.956 185.051,496.616 186.992,495.936C188.933,495.255 190.534,494.515 191.794,493.715C193.055,492.914 194.045,492.174 194.765,491.494C195.486,490.813 196.086,490.473 196.566,490.473C197.047,490.473 197.447,490.673 197.767,491.073L199.268,492.994C198.347,494.195 197.187,495.315 195.786,496.356C194.385,497.396 192.805,498.297 191.044,499.057C189.283,499.817 187.372,500.408 185.311,500.828C183.25,501.248 181.099,501.458 178.858,501.458C175.057,501.458 171.585,500.768 168.444,499.387C165.302,498.007 162.601,496.006 160.34,493.384C158.079,490.763 156.318,487.552 155.057,483.75C153.797,479.948 153.167,475.626 153.167,470.784C153.167,466.222 153.767,462.06 154.967,458.298C156.168,454.537 157.929,451.295 160.25,448.574C162.571,445.853 165.402,443.742 168.744,442.241C172.085,440.741 175.917,439.99 180.239,439.99C184.121,439.99 187.562,440.61 190.564,441.851C193.565,443.092 196.186,444.772 198.427,446.893L196.926,448.934Z" style="fill:black;fill-rule:nonzero;"/>
                    <path d="M219.737,440.951L219.737,500.678L214.034,500.678L214.034,440.951L219.737,440.951ZM222.198,420.361C222.198,421.082 222.048,421.752 221.748,422.372C221.448,422.992 221.057,423.543 220.577,424.023C220.097,424.503 219.537,424.883 218.896,425.163C218.256,425.444 217.576,425.584 216.856,425.584C216.135,425.584 215.455,425.444 214.815,425.163C214.174,424.883 213.614,424.503 213.134,424.023C212.654,423.543 212.273,422.992 211.993,422.372C211.713,421.752 211.573,421.082 211.573,420.361C211.573,419.641 211.713,418.951 211.993,418.29C212.273,417.63 212.654,417.06 213.134,416.58C213.614,416.099 214.174,415.719 214.815,415.439C215.455,415.159 216.135,415.019 216.856,415.019C217.576,415.019 218.256,415.159 218.896,415.439C219.537,415.719 220.097,416.099 220.577,416.58C221.057,417.06 221.448,417.63 221.748,418.29C222.048,418.951 222.198,419.641 222.198,420.361Z" style="fill:black;fill-rule:nonzero;"/>
                    <path d="M263.737,439.99C268.019,439.99 271.851,440.72 275.232,442.181C278.614,443.642 281.465,445.713 283.786,448.394C286.107,451.075 287.878,454.307 289.098,458.088C290.319,461.87 290.929,466.102 290.929,470.784C290.929,475.466 290.319,479.688 289.098,483.45C287.878,487.212 286.107,490.433 283.786,493.114C281.465,495.796 278.614,497.856 275.232,499.297C271.851,500.738 268.019,501.458 263.737,501.458C259.455,501.458 255.623,500.738 252.242,499.297C248.86,497.856 245.999,495.796 243.658,493.114C241.317,490.433 239.536,487.212 238.315,483.45C237.095,479.688 236.484,475.466 236.484,470.784C236.484,466.102 237.095,461.87 238.315,458.088C239.536,454.307 241.317,451.075 243.658,448.394C245.999,445.713 248.86,443.642 252.242,442.181C255.623,440.72 259.455,439.99 263.737,439.99ZM263.737,496.956C267.298,496.956 270.41,496.346 273.071,495.125C275.732,493.905 277.953,492.154 279.734,489.873C281.515,487.592 282.846,484.841 283.726,481.619C284.606,478.398 285.047,474.786 285.047,470.784C285.047,466.822 284.606,463.221 283.726,459.979C282.846,456.738 281.515,453.967 279.734,451.665C277.953,449.364 275.732,447.594 273.071,446.353C270.41,445.112 267.298,444.492 263.737,444.492C260.175,444.492 257.064,445.112 254.403,446.353C251.741,447.594 249.52,449.364 247.74,451.665C245.959,453.967 244.618,456.738 243.718,459.979C242.817,463.221 242.367,466.822 242.367,470.784C242.367,474.786 242.817,478.398 243.718,481.619C244.618,484.841 245.959,487.592 247.74,489.873C249.52,492.154 251.741,493.905 254.403,495.125C257.064,496.346 260.175,496.956 263.737,496.956Z" style="fill:black;fill-rule:nonzero;"/>
                    <path d="M312.539,451.395C315.3,447.954 318.492,445.193 322.113,443.112C325.735,441.031 329.767,439.99 334.209,439.99C337.49,439.99 340.382,440.51 342.883,441.551C345.384,442.591 347.455,444.092 349.096,446.053C350.736,448.014 351.977,450.375 352.817,453.136C353.658,455.897 354.078,459.019 354.078,462.5L354.078,500.678L348.315,500.678L348.315,462.5C348.315,456.898 347.035,452.506 344.473,449.324C341.912,446.143 338.011,444.552 332.768,444.552C328.886,444.552 325.255,445.543 321.873,447.524C318.492,449.504 315.48,452.256 312.839,455.777L312.839,500.678L307.077,500.678L307.077,440.951L310.258,440.951C311.258,440.951 311.839,441.451 311.999,442.451L312.539,451.395Z" style="fill:black;fill-rule:nonzero;"/>
                    <path d="M415.006,464.781C415.006,461.58 414.555,458.709 413.655,456.168C412.755,453.626 411.484,451.475 409.843,449.715C408.202,447.954 406.252,446.603 403.991,445.663C401.73,444.722 399.238,444.252 396.517,444.252C393.436,444.252 390.674,444.732 388.233,445.693C385.792,446.653 383.681,448.034 381.9,449.835C380.12,451.635 378.689,453.796 377.609,456.318C376.528,458.839 375.808,461.66 375.448,464.781L415.006,464.781ZM375.147,468.443L375.147,469.584C375.147,474.066 375.668,478.007 376.708,481.409C377.749,484.811 379.229,487.662 381.15,489.963C383.071,492.264 385.392,493.995 388.113,495.155C390.835,496.316 393.876,496.896 397.237,496.896C400.239,496.896 402.84,496.566 405.041,495.906C407.242,495.245 409.093,494.505 410.594,493.685C412.094,492.864 413.285,492.124 414.165,491.464C415.046,490.803 415.686,490.473 416.086,490.473C416.606,490.473 417.006,490.673 417.287,491.073L418.847,492.994C417.887,494.195 416.616,495.315 415.036,496.356C413.455,497.396 411.694,498.287 409.753,499.027C407.812,499.767 405.731,500.358 403.51,500.798C401.289,501.238 399.058,501.458 396.817,501.458C392.735,501.458 389.014,500.748 385.652,499.327C382.291,497.906 379.409,495.836 377.008,493.114C374.607,490.393 372.756,487.062 371.456,483.12C370.155,479.178 369.505,474.666 369.505,469.584C369.505,465.302 370.115,461.35 371.336,457.728C372.556,454.107 374.317,450.985 376.618,448.364C378.919,445.743 381.74,443.692 385.082,442.211C388.423,440.731 392.215,439.99 396.457,439.99C399.819,439.99 402.94,440.57 405.821,441.731C408.703,442.891 411.204,444.582 413.325,446.803C415.446,449.024 417.116,451.756 418.337,454.997C419.558,458.238 420.168,461.96 420.168,466.162C420.168,467.042 420.048,467.643 419.808,467.963C419.568,468.283 419.167,468.443 418.607,468.443L375.147,468.443Z" style="fill:black;fill-rule:nonzero;"/>
                    <path d="M477.614,464.781C477.614,461.58 477.164,458.709 476.263,456.168C475.363,453.626 474.092,451.475 472.452,449.715C470.811,447.954 468.86,446.603 466.599,445.663C464.338,444.722 461.847,444.252 459.126,444.252C456.044,444.252 453.283,444.732 450.842,445.693C448.401,446.653 446.29,448.034 444.509,449.835C442.728,451.635 441.297,453.796 440.217,456.318C439.136,458.839 438.416,461.66 438.056,464.781L477.614,464.781ZM437.756,468.443L437.756,469.584C437.756,474.066 438.276,478.007 439.317,481.409C440.357,484.811 441.838,487.662 443.759,489.963C445.679,492.264 448.001,493.995 450.722,495.155C453.443,496.316 456.484,496.896 459.846,496.896C462.847,496.896 465.448,496.566 467.649,495.906C469.85,495.245 471.701,494.505 473.202,493.685C474.703,492.864 475.893,492.124 476.774,491.464C477.654,490.803 478.294,490.473 478.694,490.473C479.215,490.473 479.615,490.673 479.895,491.073L481.456,492.994C480.495,494.195 479.225,495.315 477.644,496.356C476.063,497.396 474.302,498.287 472.362,499.027C470.421,499.767 468.34,500.358 466.119,500.798C463.898,501.238 461.667,501.458 459.426,501.458C455.344,501.458 451.622,500.748 448.261,499.327C444.899,497.906 442.018,495.836 439.617,493.114C437.216,490.393 435.365,487.062 434.064,483.12C432.764,479.178 432.113,474.666 432.113,469.584C432.113,465.302 432.724,461.35 433.944,457.728C435.165,454.107 436.925,450.985 439.227,448.364C441.528,445.743 444.349,443.692 447.69,442.211C451.032,440.731 454.824,439.99 459.066,439.99C462.427,439.99 465.548,440.57 468.43,441.731C471.311,442.891 473.812,444.582 475.933,446.803C478.054,449.024 479.725,451.756 480.945,454.997C482.166,458.238 482.776,461.96 482.776,466.162C482.776,467.042 482.656,467.643 482.416,467.963C482.176,468.283 481.776,468.443 481.216,468.443L437.756,468.443Z" style="fill:black;fill-rule:nonzero;"/>
                    <path d="M503.786,455.357C504.706,452.916 505.757,450.745 506.937,448.844C508.118,446.943 509.478,445.333 511.019,444.012C512.56,442.691 514.281,441.681 516.181,440.981C518.082,440.28 520.193,439.93 522.514,439.93C523.755,439.93 524.975,440.04 526.176,440.26C527.377,440.48 528.437,440.871 529.357,441.431L528.877,445.393C528.677,446.033 528.297,446.353 527.737,446.353C527.257,446.353 526.526,446.213 525.546,445.933C524.565,445.653 523.275,445.513 521.674,445.513C519.353,445.513 517.302,445.863 515.521,446.563C513.74,447.263 512.14,448.314 510.719,449.715C509.298,451.115 508.058,452.846 506.997,454.907C505.937,456.968 504.966,459.339 504.086,462.02L504.086,500.678L498.323,500.678L498.323,440.951L501.385,440.951C502.065,440.951 502.545,441.091 502.825,441.371C503.106,441.651 503.286,442.131 503.366,442.811L503.786,455.357Z" style="fill:black;fill-rule:nonzero;"/>
                    <path d="M572.937,448.334C572.617,448.894 572.157,449.174 571.557,449.174C571.116,449.174 570.556,448.924 569.876,448.424C569.196,447.924 568.285,447.364 567.145,446.743C566.004,446.123 564.593,445.563 562.913,445.062C561.232,444.562 559.191,444.312 556.79,444.312C554.629,444.312 552.658,444.622 550.877,445.243C549.096,445.863 547.576,446.693 546.315,447.734C545.055,448.774 544.084,449.985 543.404,451.365C542.724,452.746 542.383,454.197 542.383,455.717C542.383,457.598 542.864,459.159 543.824,460.399C544.784,461.64 546.035,462.7 547.576,463.581C549.116,464.461 550.887,465.222 552.888,465.862C554.889,466.502 556.92,467.143 558.981,467.783C561.042,468.423 563.073,469.133 565.074,469.914C567.075,470.694 568.845,471.665 570.386,472.825C571.927,473.986 573.177,475.406 574.138,477.087C575.098,478.768 575.578,480.809 575.578,483.21C575.578,485.811 575.118,488.232 574.198,490.473C573.277,492.714 571.927,494.655 570.146,496.296C568.365,497.936 566.174,499.237 563.573,500.198C560.972,501.158 557.99,501.638 554.629,501.638C550.427,501.638 546.805,500.968 543.764,499.627C540.723,498.287 538.001,496.536 535.6,494.375L536.921,492.334C537.121,492.014 537.351,491.774 537.611,491.614C537.871,491.454 538.222,491.374 538.662,491.374C539.182,491.374 539.812,491.694 540.553,492.334C541.293,492.974 542.283,493.665 543.524,494.405C544.764,495.145 546.295,495.836 548.116,496.476C549.937,497.116 552.188,497.436 554.869,497.436C557.39,497.436 559.611,497.086 561.532,496.386C563.453,495.685 565.054,494.735 566.334,493.534C567.615,492.334 568.585,490.923 569.246,489.303C569.906,487.682 570.236,485.971 570.236,484.17C570.236,482.169 569.756,480.509 568.795,479.188C567.835,477.867 566.574,476.747 565.014,475.826C563.453,474.906 561.682,474.126 559.701,473.485C557.72,472.845 555.689,472.205 553.608,471.565C551.528,470.924 549.497,470.224 547.516,469.464C545.535,468.703 543.764,467.743 542.203,466.582C540.643,465.422 539.382,464.011 538.422,462.35C537.461,460.69 536.981,458.619 536.981,456.138C536.981,454.017 537.441,451.976 538.362,450.015C539.282,448.054 540.593,446.333 542.293,444.852C543.994,443.372 546.065,442.191 548.506,441.311C550.947,440.43 553.689,439.99 556.73,439.99C560.372,439.99 563.603,440.51 566.424,441.551C569.246,442.591 571.817,444.192 574.138,446.353L572.937,448.334Z" style="fill:black;fill-rule:nonzero;"/>
                </g>
            </g>
        </g>
    </g>
    <g id="Layer_1" transform="matrix(1,0,0,1,-43.1758,-14.1621)">
        <path d="M552,161L120,17L480,17L552,161Z" style="fill:rgb(128,64,0);fill-opacity:0.454902;fill-rule:nonzero;"/>
        <path d="M120,17L480,17L48,161L120,17Z" style="fill:rgb(255,255,0);fill-opacity:0.501961;fill-rule:nonzero;"/>
        <path d="M48,161L120,17L432,401L48,161Z" style="fill:rgb(64,128,0);fill-opacity:0.47451;fill-rule:nonzero;"/>
        <path d="M48,161L504,304.727L432,401L48,161Z" style="fill:rgb(0,128,128);fill-opacity:0.454902;fill-rule:nonzero;"/>
        <path d="M504,304.727L432,401L168,400.727L504,304.727Z" style="fill:rgb(0,64,128);fill-opacity:0.454902;fill-rule:nonzero;"/>
        <path d="M168,400.727L432,401L96,304.727L168,400.727Z" style="fill:rgb(0,0,128);fill-opacity:0.454902;fill-rule:nonzero;"/>
        <path d="M552,161L432,185L480,17L552,161Z" style="fill:rgb(128,0,0);fill-opacity:0.454902;fill-rule:nonzero;"/>
        <path d="M96,304.727L192,281L168,400.727L96,304.727Z" style="fill:rgb(64,0,128);fill-opacity:0.454902;fill-rule:nonzero;"/>
    </g>
</svg>
